<svg data-v-2cb57da0="" version="1.0" xmlns="http://www.w3.org/2000/svg" xmlns:xlink="http://www.w3.org/1999/xlink"
    viewBox="0 0 840 117.12" preserveAspectRatio="xMidYMid meet" color-interpolation-filters="sRGB"
    style="margin: auto;">
    <g data-v-2cb57da0="" fill="#1c085d" transform="translate(0,0) scale(1.75)">
        <g transform="translate(0,0)">
            <rect fill="#1c085d" fill-opacity="0" stroke-width="2" x="0" y="0" width="60" height="46.84133279205571">
            </rect> <svg x="0" y="0" width="60" height="46.84133279205571" filtersec="colorsb9771784688"
                style="overflow: visible;"><svg xmlns="http://www.w3.org/2000/svg" viewBox="0 0 128.0915069580078 100">
                    <title>e6c5703b-a406-46f3-a79c-55953c2edfab</title>
                    <path fill="#eb001b" d="M93.63 100h21.21L90.69 58.44 75.86 68.61 93.63 100z"></path>
                    <path
                        d="M57 0L0 100s31.9 0 83.15-34.92 45.21-53.51 44.21-56-6-9.79-25.12-5.77c0 0 24.11 0 9.29 20.34S52.25 72.34 36.93 74.1a1.21 1.21 0 0 1-1.33-1.45l21.26-36.58 9.83 15.5 14.93-9.27z"
                        fill="#1c085d"></path>
                </svg></svg>
        </g>
        <g transform="translate(70,6.8)">
            <g data-gra="path-name" fill-rule="" class="tp-name iconsvg-namesvg">
                <g transform="scale(1.15)">
                    <g>
                        <path
                            d="M13.15-35.02L35.19-35.02 39.44-3.36 29.81-3.36 28.7-11.97 15.27-11.97 11.52-3.36 2.41-3.36 14.77-33.45 13.15-35.02ZM26.57-29.65L22.82-29.65 17.45-17.34 28.19-17.34 26.57-29.65ZM47.83-38.26L59.63-38.26 58.06-26.96 75.24-26.96 72.55-7.1Q72.1-5.48 70.99-4.42 69.87-3.36 68.24-3.36L68.24-3.36 44.08-3.36 48.89-36.64 47.83-38.26ZM63.94-21.59L57.5-21.59 55.66-8.73 62.04-8.73 63.94-21.59ZM87.1-3.86L80.77-25.34 79.21-26.96 91.01-26.96 93.92-15.1 99.07-25.9 98-26.96 110.31-26.96 92.3 6.27Q91.85 7.05 90.82 7.72 89.78 8.39 88.55 8.39L88.55 8.39 78.59 8.39 82.9 4.08 87.1-3.86ZM116.35-8.73L130.34-8.73 130.84-12.47 114.73-12.47 116.91-26.96 142.64-26.96 141.58-20.03 132.29-20.03 132.46-21.59 126.03-21.59 125.47-17.84 141.08-17.84 139.96-7.1Q139.57-5.48 138.17-4.42 136.77-3.36 135.15-3.36L135.15-3.36 113.67-3.36 114.73-10.85 116.35-8.73ZM149.8-8.73L163.79-8.73 164.29-12.47 148.18-12.47 150.36-26.96 176.09-26.96 175.03-20.03 165.74-20.03 165.91-21.59 159.48-21.59 158.92-17.84 174.53-17.84 173.41-7.1Q173.02-5.48 171.62-4.42 170.22-3.36 168.6-3.36L168.6-3.36 147.12-3.36 148.18-10.85 149.8-8.73ZM184.15-3.36L184.15-3.36Q183.36-3.36 182.69-3.64 182.02-3.92 181.55-4.42 181.07-4.92 180.9-5.62 180.74-6.32 180.96-7.1L180.96-7.1 184.71-35.02 218.55-35.02 217.99-29.65 194.38-29.65 191.7-8.73 212.62-8.73 215.31-10.85 214.24-3.36 184.15-3.36ZM225.71-26.96L249.88-26.96Q251.5-26.96 252.31-25.65 253.12-24.33 253.12-22.71L253.12-22.71 250.43-3.36 226.27-3.36Q224.65-3.36 223.84-4.42 223.02-5.48 223.02-7.1L223.02-7.1 225.71-26.96ZM242.38-21.59L235.89-21.59 233.77-8.73 240.2-8.73 242.38-21.59ZM277.45-26.96L279.07-38.26 289.81-38.26 285-3.36 260.84-3.36Q259.22-3.36 258.41-4.42 257.59-5.48 257.59-7.1L257.59-7.1 260.28-26.96 277.45-26.96ZM276.95-21.59L270.18-21.59 268.11-8.73 274.94-8.73 276.95-21.59ZM324.55-26.96L322.43-13.03 305.25-13.03 304.69-8.73 319.74-8.73 322.43-10.85 320.8-3.36 297.2-3.36Q295.58-3.36 294.77-4.42 293.95-5.48 293.95-7.1L293.95-7.1 296.64-26.96 324.55-26.96ZM313.31-21.59L306.82-21.59 306.32-18.4 312.75-18.4 313.31-21.59ZM331.04-26.96L341.89-26.96 340.83-19.47 348.38-26.96 359.12-26.96 340.83-10.85 339.77-3.36 329.03-3.36 332.16-25.4 331.04-26.96Z"
                            transform="translate(-2.4100000858306885, 38.2599983215332)"></path>
                    </g>
                </g>
            </g>
        </g>
    </g>
</svg>