<svg data-v-2cb57da0="" version="1.0" xmlns="http://www.w3.org/2000/svg" xmlns:xlink="http://www.w3.org/1999/xlink"
    viewBox="0 0 350 83.25" preserveAspectRatio="xMidYMid meet" color-interpolation-filters="sRGB"
    style="margin: auto;">
    <g data-v-2cb57da0="" fill="#1c085d" transform="translate(0,0) scale(1.75)">
        <g transform="translate(0,0)">
            <rect fill="#1c085d" fill-opacity="0" stroke-width="2" x="0" y="0" width="60" height="46.84133279205571">
            </rect> <svg x="0" y="0" width="60" height="46.84133279205571" filtersec="colorsb9771784688"
                style="overflow: visible;"><svg xmlns="http://www.w3.org/2000/svg" viewBox="0 0 128.0915069580078 100">
                    <title>e6c5703b-a406-46f3-a79c-55953c2edfab</title>
                    <path fill="#eb001b" d="M93.63 100h21.21L90.69 58.44 75.86 68.61 93.63 100z"></path>
                    <path
                        d="M57 0L0 100s31.9 0 83.15-34.92 45.21-53.51 44.21-56-6-9.79-25.12-5.77c0 0 24.11 0 9.29 20.34S52.25 72.34 36.93 74.1a1.21 1.21 0 0 1-1.33-1.45l21.26-36.58 9.83 15.5 14.93-9.27z"
                        fill="#1c085d"></path>
                </svg></svg>
        </g>
        <g transform="translate(70,6.8)">
            <g data-gra="path-name" fill-rule="">
                <g transform="scale(1.15)">
                    <g>
                        <path
                            d="M13.15-35.02L35.19-35.02 39.44-3.36 29.81-3.36 28.7-11.97 15.27-11.97 11.52-3.36 2.41-3.36 14.77-33.45 13.15-35.02ZM26.57-29.65L22.82-29.65 17.45-17.34 28.19-17.34 26.57-29.65ZM47.83-38.26L59.63-38.26 58.06-26.96 75.24-26.96 72.55-7.1Q72.1-5.48 70.99-4.42 69.87-3.36 68.24-3.36L68.24-3.36 44.08-3.36 48.89-36.64 47.83-38.26ZM63.94-21.59L57.5-21.59 55.66-8.73 62.04-8.73 63.94-21.59ZM83.29-3.36L83.29-3.36Q82.51-3.36 81.84-3.64 81.17-3.92 80.69-4.42 80.22-4.92 80.05-5.62 79.88-6.32 80.1-7.1L80.1-7.1 83.85-35.02 117.69-35.02 117.13-29.65 93.53-29.65 90.84-8.73 111.76-8.73 114.45-10.85 113.39-3.36 83.29-3.36Z"
                            transform="translate(-2.4100000858306885, 38.2599983215332)"></path>
                    </g>
                </g>
            </g>
        </g>
    </g>
</svg>