<svg xmlns="http://www.w3.org/2000/svg" xmlns:svg="http://www.w3.org/2000/svg" version="1.1"
   viewBox="0 0 234.73448 44.65545" preserveAspectRatio="xMidYMid meet" style="display:inline;overflow:visible"
   id="banner_contain">
   <g transform="translate(-34.201061,-27.959325)">
      <g transform="translate(34.200976,36.016945)">
         <g transform="translate(49)" fill="#333333">
            <path
               d="m 4.7,-30.02 h 9.26 l -1.23,8.87 H 26.2 l -2.11,15.58 q -0.35,1.27 -1.23,2.1 -0.87,0.84 -2.15,0.84 v 0 H 1.76 l 3.77,-26.12 z m 12.63,13.08 h -5.04 l -1.45,10.09 h 5 z"
               transform="translate(-1.7554275,30.01783)" />
         </g>
         <g transform="translate(77)" fill="#333333">
            <path
               d="M 7.55,-3.03 2.59,-19.88 1.36,-21.15 h 9.26 l 2.28,9.3 4.04,-8.47 -0.83,-0.83 h 9.65 L 11.63,4.92 Q 11.28,5.53 10.47,6.06 9.65,6.58 8.69,6.58 v 0 H 0.88 L 4.26,3.2 Z"
               transform="translate(-0.8777145,30.01783)" />
         </g>
         <g transform="translate(105)" fill="#333333">
            <path
               d="m 3.86,-6.85 h 10.97 l 0.4,-2.94 H 2.59 L 4.3,-21.15 h 20.19 l -0.84,5.44 h -7.28 l 0.13,-1.23 H 11.45 L 11.02,-14 h 12.24 l -0.88,8.43 q -0.31,1.27 -1.4,2.1 -1.1,0.84 -2.37,0.84 v 0 H 1.76 l 0.83,-5.88 z"
               transform="translate(-1.75543,30.01783)" />
         </g>
         <g transform="translate(131)" fill="#333333">
            <path
               d="m 3.86,-6.85 h 10.97 l 0.4,-2.94 H 2.59 L 4.3,-21.15 h 20.19 l -0.84,5.44 h -7.28 l 0.13,-1.23 H 11.45 L 11.02,-14 h 12.24 l -0.88,8.43 q -0.31,1.27 -1.4,2.1 -1.1,0.84 -2.37,0.84 v 0 H 1.76 l 0.83,-5.88 z"
               transform="translate(-1.7554302,30.01783)" />
         </g>
         <g transform="translate(157)" fill="#333333">
            <path
               d="m 25.76,-21.15 -1.67,10.92 H 10.62 l -0.44,3.38 h 11.81 l 2.1,-1.66 -1.27,5.88 H 4.3 q -1.27,0 -1.91,-0.84 -0.63,-0.83 -0.63,-2.1 v 0 l 2.1,-15.58 z m -8.82,4.21 h -5.09 l -0.4,2.5 h 5.05 z"
               transform="translate(-1.7554305,30.01783)" />
         </g>
         <g transform="translate(185)" fill="#333333">
            <path
               d="m 3.34,-21.15 h 8.51 l -0.83,5.88 5.92,-5.88 h 8.43 L 11.02,-8.51 10.18,-2.63 H 1.76 l 2.45,-17.29 z"
               transform="translate(-1.7554275,30.01783)" />
         </g>
         <g transform="translate(212)" fill="#333333">
            <path
               d="m 3.86,-6.85 h 10.97 l 0.4,-2.94 H 2.59 L 4.3,-21.15 h 20.19 l -0.84,5.44 h -7.28 l 0.13,-1.23 H 11.45 L 11.02,-14 h 12.24 l -0.88,8.43 q -0.31,1.27 -1.4,2.1 -1.1,0.84 -2.37,0.84 v 0 H 1.76 l 0.83,-5.88 z"
               transform="translate(-1.7554283,30.01783)" />
         </g>
      </g>
      <g transform="translate(34.200976,27.959324)">
         <path fill="#333333" d="m 93.63,100 h 21.21 L 90.69,58.44 75.86,68.61 Z"
            transform="matrix(0.35445328,0,0,0.35445328,8.5e-5,7.4765715e-7)" />
         <path
            d="M 57,0 0,100 c 0,0 31.9,0 83.15,-34.92 51.25,-34.92 45.21,-53.51 44.21,-56 -1,-2.49 -6,-9.79 -25.12,-5.77 0,0 24.11,0 9.29,20.34 C 96.71,43.99 52.25,72.34 36.93,74.1 A 1.21,1.21 0 0 1 35.6,72.65 l 21.26,-36.58 9.83,15.5 14.93,-9.27 z"
            fill="#e42b37" transform="matrix(0.35445328,0,0,0.35445328,8.5e-5,7.4765715e-7)" />
      </g>
   </g>
</svg>